<svg xmlns="http://www.w3.org/2000/svg" viewBox="0 0 423.11 459.11"><defs><style>.cls-1,.cls-10,.cls-22,.cls-3{fill:none;stroke-miterlimit:10;}.cls-1,.cls-3{stroke:#060606;}.cls-1{stroke-width:1.04px;}.cls-2{fill:#f82529;}.cls-3{stroke-width:1.08px;}.cls-4,.cls-8{fill:#fff;}.cls-4{opacity:0.19;}.cls-5{fill:#d08355;}.cls-6{fill:#060606;}.cls-7{fill:#7e4c38;}.cls-9{fill:#535640;}.cls-10{stroke:#3c6559;stroke-width:0.96px;}.cls-11{fill:#658070;}.cls-12{fill:#f5a43f;}.cls-13{fill:#ed8476;}.cls-14{fill:#231b22;}.cls-15{fill:#79797a;}.cls-16{fill:#868688;}.cls-17{fill:#191637;}.cls-18{fill:#dd6f64;}.cls-19{fill:#d19d97;}.cls-20{fill:#b97b78;}.cls-21{fill:#2f3247;}.cls-22{stroke:#2f3247;stroke-linecap:round;stroke-width:0.55px;}.cls-23{fill:#e4c5b9;}.cls-24{fill:#e2d7d0;}</style></defs><title>Ресурс 1</title><g id="Слой_2" data-name="Слой 2"><g id="OBJECTS"><polygon class="cls-1" points="364.87 121.08 364.87 68.42 333.77 68.42 333.77 96.65 211.55 0.66 0.52 166.41 0.52 458.59 422.59 458.59 422.59 166.41 364.87 121.08"/><path class="cls-2" d="M176.37,97c0-22.51,16.09-40.76,35.94-40.76h0c19.85,0,35.95,18.25,35.95,40.76Z"/><line class="cls-3" x1="212.31" y1="56.19" x2="212.31" y2="1.95"/><polygon class="cls-4" points="248.43 96.95 422.59 458.59 0.52 458.59 176.54 96.95 248.43 96.95"/><path class="cls-5" d="M413.53,424.6c-1.3-5.74-9.83-7.34-16.62-7.7-68.53-3.57-298-1.13-335.83-1.2-6.26,0-12.74,0-18.46,2.22s-10.49,7.16-9.81,12.51c.59,4.6,4.95,8.22,9.66,10.47,8.86,4.23,19.35,5,29.48,5.28C115,447.53,158,443.1,201.1,441.87c60-1.71,120.1,2.8,180-.64,10.27-.59,21.45-1.77,28.63-8.11C412.28,430.85,414.24,427.71,413.53,424.6Z"/><rect class="cls-6" x="208.35" y="373.31" width="125.4" height="1.13" transform="matrix(0.11, -0.99, 0.99, 0.11, -130.01, 602.79)"/><rect class="cls-6" x="321.94" y="311.18" width="1.13" height="125.4" transform="translate(-38.6 37.13) rotate(-6.22)"/><rect class="cls-6" x="268.07" y="398.73" width="57.41" height="1.13"/><rect class="cls-7" x="268.07" y="309.85" width="58.62" height="3.4"/><polygon class="cls-6" points="200.62 436.27 199.49 436.11 213.08 275.23 214.2 275.39 200.62 436.27"/><polygon class="cls-6" points="392.41 436.27 378.82 275.39 379.95 275.23 393.53 436.11 392.41 436.27"/><rect class="cls-8" x="196.33" y="265.99" width="200.37" height="11.94"/><path class="cls-9" d="M242.55,249.16s2.2,16.59-10.28,16.83-9-17.57-9-17.57Z"/><path class="cls-9" d="M221.52,262a5.9,5.9,0,1,1,5.9-5.9A5.91,5.91,0,0,1,221.52,262Zm0-9.91a4,4,0,1,0,4,4A4,4,0,0,0,221.52,252.1Z"/><path class="cls-8" d="M231.18,243a8.07,8.07,0,0,1-1.3-1.23,7.26,7.26,0,0,1-1-1.51,6.43,6.43,0,0,1-.56-3.88,8.62,8.62,0,0,1,1.5-3.54,15.41,15.41,0,0,1,2.32-2.6,31.57,31.57,0,0,1,5.23-3.7c.45-.26.9-.52,1.36-.75l1.31-.7c.78-.4,1.54-.82,2.27-1.26a22.88,22.88,0,0,0,3.84-2.83,7.27,7.27,0,0,0,1.2-1.43c.28-.43.37-.8.27-.87s-.33.25-.36.59-.07.47-.27.39-.56-.29-1-.52-1.08-.47-1.71-.71a7.18,7.18,0,0,1,5-13.45,6.93,6.93,0,0,1,1.64.87l.28.2a22.48,22.48,0,0,1,6,5.82,12.35,12.35,0,0,1,2.07,5.48,10.55,10.55,0,0,1-1.2,6.1,13,13,0,0,1-3,3.69,18.83,18.83,0,0,1-3.15,2.18,32.51,32.51,0,0,1-6.1,2.55c-1,.32-2,.58-3,.83-.53.13-.9.2-1.34.3s-.86.18-1.28.29A25.53,25.53,0,0,0,235.5,235a7,7,0,0,0-3.13,2.51,2.58,2.58,0,0,0-.29,1.68,4.89,4.89,0,0,0,.8,1.95l.13.19a1.28,1.28,0,0,1-1.83,1.74Z"/><path class="cls-10" d="M385.55,240.13s10.14-8.93,5.46-17.57-7-7.54-3.15-14.88,3-9.35-2-16.28-.23-20.71-3-27.21c-2.55-6-7.49-9.83-7.49.39,0,11.35,3.62,13.58.29,24.35s-9.53,21.48-1.63,25.9.33,13.12,2.75,20.57S385.55,240.13,385.55,240.13Z"/><path class="cls-11" d="M375.39,231.28c-.57-1.31.85-6.88-2.35-11.1s-3.4-4.58-1.48-12-1.24-12.85-1-21.69,5.8-15.52,8-8,2.89,8.29,1.44,16.18,1.79,5,2.66,15.06S381.24,244.61,375.39,231.28Z"/><polygon class="cls-12" points="367.67 232.04 395.27 231.89 386.83 265.92 374.18 265.99 367.67 232.04"/><polygon class="cls-13" points="147.57 424.25 133.26 424.25 135.28 404.31 149.59 404.31 147.57 424.25"/><path class="cls-14" d="M133.26,421.94h18.15l15.1,6.33a9,9,0,0,1,4.88,8H131Z"/><path class="cls-14" d="M152.89,422.62l-4.08-5.53s-6.4-1.17-5.84,5.78Z"/><path class="cls-15" d="M154.45,237s17,76.07,1.21,170.75H122.24c1.79-26.18,14.62-149.26,0-169.53Z"/><polygon class="cls-13" points="56.83 406.84 45.66 397.9 66.53 377.07 77.71 386.01 56.83 406.84"/><path class="cls-14" d="M47.1,396.09l14.17,11.34,7.84,14.37a9,9,0,0,1-1.18,9.3h0L36.37,405.85Z"/><path class="cls-14" d="M62,408.88l.26-6.87s-4.26-4.9-8.17.87Z"/><path class="cls-16" d="M99.76,240s1.94,50.08-9.61,73.78-41.64,66.45-41.64,66.45L79.1,400.43s77.78-97.83,60.16-165.28Z"/><path class="cls-17" d="M113.79,139.23s-7.79-2.54-4.1-17l5.46,4.46Z"/><path class="cls-13" d="M137.08,130.83a13.33,13.33,0,0,0-11.49-12.11,10.74,10.74,0,0,0-5.81.83c-4.61,2.08-6.41,8.87-7.11,14.06l.21,6.53L111.43,167c3.48,16.84,16.65,16.67,17.4-3.87l.24-13.45C137.12,147.69,137.72,137.8,137.08,130.83Z"/><path class="cls-18" d="M129.07,149.71s-3.75,1.21-8.84-2.37c0,0,2.75,6,8.72,8.35Z"/><path class="cls-19" d="M113.79,131.84a2.2,2.2,0,0,1-1.85,2.43c-1,0-1.84-1.09-1.84-2.44s.83-2.43,1.85-2.43A2.21,2.21,0,0,1,113.79,131.84Z"/><path class="cls-20" d="M112,131.84a.33.33,0,0,1-.32.32.32.32,0,0,1-.32-.32.32.32,0,0,1,.32-.32A.32.32,0,0,1,112,131.84Z"/><path class="cls-20" d="M111.69,131.52s.74-.12.83.8c0,0-.23-.45-.83-.16Z"/><path class="cls-13" d="M113.79,131.84a2.2,2.2,0,0,1-1.85,2.43c-1,0-1.84-1.09-1.84-2.44s.83-2.43,1.85-2.43A2.21,2.21,0,0,1,113.79,131.84Z"/><path class="cls-21" d="M124.5,138.06a7.25,7.25,0,0,0,1.49,2.07,4.24,4.24,0,0,0,2.16,1.09,6,6,0,0,0,2.44-.25c.4-.14.8-.29,1.2-.46s.77-.38,1.18-.56c-.34.28-.7.53-1.05.8s-.78.43-1.18.62a5.29,5.29,0,0,1-2.68.39,4.06,4.06,0,0,1-2.37-1.33A5.28,5.28,0,0,1,124.5,138.06Z"/><path class="cls-21" d="M128.7,129.79a23.42,23.42,0,0,1,1.75,2.25c.53.79,1,1.59,1.51,2.42l.1.17-.14.12c-.8.65-1.6,1.3-2.45,1.9.68-.78,1.41-1.51,2.14-2.24l0,.29c-.56-.77-1.07-1.57-1.56-2.38A25.26,25.26,0,0,1,128.7,129.79Z"/><path class="cls-21" d="M126.38,130.23a6.91,6.91,0,0,1,0,2.13,3.27,3.27,0,0,1-.32,1.08,1.59,1.59,0,0,1-.91.81A1.47,1.47,0,0,1,124,134a3.38,3.38,0,0,1-.81-.79,7.35,7.35,0,0,1-1-1.9.18.18,0,0,1,.32-.14h0a9.15,9.15,0,0,0,1.08,1.71c.4.5,1,1,1.46.8s.79-.8.92-1.44a9.67,9.67,0,0,0,.15-2h0a.14.14,0,0,1,.14-.15A.14.14,0,0,1,126.38,130.23Z"/><path class="cls-21" d="M135.7,129.75a8.29,8.29,0,0,1,.11,2,3.8,3.8,0,0,1-.19,1,1.27,1.27,0,0,1-.83.86,1.24,1.24,0,0,1-1.11-.43,4,4,0,0,1-.62-.84,8.52,8.52,0,0,1-.77-1.85.18.18,0,0,1,.33-.12h0a14.22,14.22,0,0,0,.88,1.69,4.07,4.07,0,0,0,.56.72.7.7,0,0,0,.61.28c.19,0,.35-.24.46-.51a4.18,4.18,0,0,0,.2-.88,11.18,11.18,0,0,0,.07-1.92h0a.17.17,0,0,1,.15-.16A.16.16,0,0,1,135.7,129.75Z"/><path class="cls-22" d="M112.48,131.17s-1-.16-1.11.67.91.68.91.68"/><path class="cls-17" d="M122.31,120.69c0-.73-.08,5.39-3.5,5.39s1.44,5.07-2.45,5.08-5.74-3.26-6.26-6.06c-.41-2.25-2.31-11.09,7.77-11.09s7.69-7.22,15.65.74c6,6,4.49,7.79.51,8.66S122.31,123.47,122.31,120.69Z"/><path class="cls-13" d="M160.26,202.27,177.53,216c6.46,4.69,13.11,3,16.8-4.07a13.26,13.26,0,0,0,.65-1.43c3-7.9,4.11-56.18,4.11-56.18L188.68,154l-7.24,42.13L171.67,188Z"/><path class="cls-13" d="M188.12,158.87A62.74,62.74,0,0,1,190,145.62c.65-2.27,1.36-4.32,1.69-4.08.71.53.74,5.85.74,5.85s.93-7.37,1.65-5.07.49,6.65.49,6.65,1.64-6.84,2-4.36a33.32,33.32,0,0,1-.14,6.74s2.17-7.55,2.37-3.65c.3,5.8.46,6.33.13,11.44Z"/><path class="cls-23" d="M89.19,273l3.44-61.45,13.91-50.06,5.67-.76c9.83,5.34,16.31.43,16.86,0,8.81,2.13,14.64,4.35,20.64,7.66a80.58,80.58,0,0,1,9.51,6.23l18.64,14L163.1,209.94l-5.83-4.22,6.09,68.17C156.79,273.89,89.19,273,89.19,273Z"/><path class="cls-13" d="M89.53,197.28s6.5,36.45,14.11,38.89a14.51,14.51,0,0,0,1.51.39c8.3,1.65,56.06-5.5,56.06-5.5l-1.44-10.32-42,.48-8.19-31.61Z"/><path class="cls-13" d="M161.21,231.06s17.69-1.26,16.55-11.87c0-.43-.11-1.74-.11-1.74l-15.86.62v2.42l-2,.25Z"/><path class="cls-23" d="M117.87,213.21l-27.33,8.91s-6.46-13.67-6.46-27.54c0-23.38,8.42-30.06,19.08-32.29l3.38-.78Z"/><path d="M177.65,217.45l-52.93,2.08a2.94,2.94,0,0,1-3-2.83h0a2.93,2.93,0,0,1,2.82-3l52.93-2.07a2.93,2.93,0,0,1,3.05,2.82h0A2.94,2.94,0,0,1,177.65,217.45Z"/><path d="M176.68,214.79a1.09,1.09,0,0,0,.73-.53l23.2-41.42a1.1,1.1,0,1,0-1.92-1.07l-23.2,41.41a1.1,1.1,0,0,0,.42,1.5A1,1,0,0,0,176.68,214.79Z"/><path class="cls-24" d="M177.67,114.21c0-.1-4.29,3.87-4.29,3.87l2.86,8,1.21-6.63,6.1-2.42,7.38-10.21Z"/><polygon class="cls-24" points="190.93 106.82 176.24 126.08 177.45 119.45 190.93 106.82"/><polygon class="cls-8" points="190.93 106.82 168.42 116.32 173.38 118.08 190.93 106.82 177.45 119.45 185.93 122.68 190.93 106.82"/><path class="cls-8" d="M167.18,209.94c-.06.05-.58-.6-1.71-1.66a17.12,17.12,0,0,0-5.68-3.56,23,23,0,0,0-4.69-1.25,30.7,30.7,0,0,0-5.79-.28,44.08,44.08,0,0,0-6.63.8c-2.32.46-4.77,1.1-7.35,1.76s-5.28,1.35-8.17,1.89a38,38,0,0,1-9.16.69,20.8,20.8,0,0,1-9.56-2.76,15.1,15.1,0,0,1-6.66-8.22,29.6,29.6,0,0,1-1.09-11c.19-3.72.72-7.44.77-11.2a30.08,30.08,0,0,0-.39-5.61,16.42,16.42,0,0,0-.68-2.7,11.33,11.33,0,0,0-1.15-2.49,8.6,8.6,0,0,0-4.1-3.41,5.92,5.92,0,0,0-2.58-.42,4.75,4.75,0,0,0-2.38.87,6.7,6.7,0,0,0-2.59,4.53,11.2,11.2,0,0,0,.57,5.44,9.07,9.07,0,0,0,3.18,4.26,12.85,12.85,0,0,0,4.94,2.13,22.27,22.27,0,0,0,5.47.44,41,41,0,0,0,5.45-.4,51.56,51.56,0,0,0,10.26-2.69A92,92,0,0,0,135,166c5.22-3.38,9.89-6.85,14.16-10s8.11-6.05,11.31-8.78a76.9,76.9,0,0,0,7.76-7.47,61,61,0,0,0,4.25-5.32,13.79,13.79,0,0,1,1.41-1.92,11.34,11.34,0,0,1-1.12,2.11,48.4,48.4,0,0,1-4,5.57,71.6,71.6,0,0,1-7.63,7.76c-3.18,2.82-7,5.78-11.21,9s-8.87,6.76-14.11,10.23A92.28,92.28,0,0,1,118,176.6c-6.64,2.5-14.2,4.12-22.08,2.81a14.33,14.33,0,0,1-5.6-2.41,10.8,10.8,0,0,1-3.77-5,12.81,12.81,0,0,1-.66-6.3A8.44,8.44,0,0,1,89.19,160a6.56,6.56,0,0,1,3.24-1.17,7.71,7.71,0,0,1,3.32.53,10.21,10.21,0,0,1,4.92,4.09,12.75,12.75,0,0,1,1.33,2.86,18.31,18.31,0,0,1,.74,3,31.35,31.35,0,0,1,.4,5.93c-.07,3.89-.61,7.63-.81,11.26a28.27,28.27,0,0,0,.94,10.39,13.6,13.6,0,0,0,6,7.43,19.41,19.41,0,0,0,8.86,2.63c6.11.39,11.8-1.14,16.95-2.34,2.59-.62,5.05-1.22,7.44-1.65a44,44,0,0,1,6.8-.69,31,31,0,0,1,5.95.44A22.2,22.2,0,0,1,160,204.1a16.2,16.2,0,0,1,5.67,3.94,10.65,10.65,0,0,1,1.15,1.38C167.1,209.74,167.21,209.92,167.18,209.94Z"/></g></g></svg>