<svg xmlns="http://www.w3.org/2000/svg" viewBox="0 0 210.85 192.09"><defs><style>.cls-1{fill:#ffab2d;}</style></defs><title>Ресурс 4mockup1</title><g id="Слой_2" data-name="Слой 2"><g id="OBJECTS"><path class="cls-1" d="M204.59,79.84c-6.07-10.73-15-19.44-24.51-27.14-8.74-7.07-16.77-10.19-22.41-20.83-3.78-7.13-6.57-14.88-11.52-21.25C135.74-2.8,117.57-1.14,102.84,2.87A152.77,152.77,0,0,0,10,76.23c-5,9.2-9.12,19.14-9.85,29.59s2.29,21.52,9.81,28.82c9.36,9.08,23.52,10.79,34.79,17.35,11.44,6.66,19.3,17.92,29,27S97,195.17,109.48,190.74C120,187,126.11,176.44,134,168.6c12.5-12.39,29.89-18.15,45.37-26.53S210,120.18,210.81,102.6C211.2,94.64,208.52,86.78,204.59,79.84Z"/></g></g></svg>