<?xml version="1.0" standalone="no"?>
<!DOCTYPE svg PUBLIC "-//W3C//DTD SVG 20010904//EN"
 "http://www.w3.org/TR/2001/REC-SVG-20010904/DTD/svg10.dtd">
<svg version="1.0" xmlns="http://www.w3.org/2000/svg"
 width="700.000000pt" height="700.000000pt" viewBox="0 0 700.000000 700.000000"
 preserveAspectRatio="xMidYMid meet">
<metadata>
Created by potrace 1.11, written by Peter Selinger 2001-2013
</metadata>
<g transform="translate(0.000000,700.000000) scale(0.100000,-0.100000)"
fill="#000000" stroke="none">
<path d="M2547 6975 c-290 -102 -370 -462 -151 -678 24 -24 66 -55 94 -68 33
-16 50 -31 50 -44 1 -11 2 -384 2 -830 l1 -810 -80 -140 c-44 -77 -90 -158
-102 -180 -12 -22 -33 -59 -46 -83 -77 -136 -222 -394 -243 -432 -14 -25 -28
-49 -32 -55 -4 -5 -21 -35 -37 -65 -17 -30 -40 -73 -53 -95 -13 -22 -35 -63
-50 -90 -14 -28 -33 -61 -42 -75 -8 -14 -152 -268 -318 -565 -167 -297 -328
-583 -358 -635 -30 -52 -73 -129 -95 -170 -22 -41 -43 -79 -48 -85 -4 -5 -18
-30 -31 -55 -26 -47 -40 -73 -145 -258 -129 -228 -158 -298 -190 -462 -18 -94
-7 -285 23 -390 99 -347 364 -602 714 -687 71 -17 176 -18 2090 -18 1914 0
2019 1 2090 18 90 22 203 66 259 101 22 14 43 26 46 26 14 0 145 112 189 161
219 243 302 576 221 884 -34 131 -48 158 -398 775 -59 105 -154 273 -185 330
-19 36 -38 70 -42 75 -4 6 -52 89 -105 185 -171 306 -182 324 -205 365 -26 46
-151 269 -188 335 -35 62 -190 338 -213 377 -10 18 -35 63 -56 100 -51 95
-131 235 -143 253 -6 8 -13 22 -17 30 -4 8 -64 116 -134 240 -69 124 -135 241
-145 260 -18 33 -19 72 -18 858 0 452 3 823 5 825 2 2 26 14 52 27 67 33 136
106 175 184 116 232 -22 516 -278 575 -29 7 -360 10 -920 10 l-875 0 -68 -24z"/>
</g>
</svg>
